<svg width="517" height="343" viewBox="0 0 517 343" fill="none" xmlns="http://www.w3.org/2000/svg">
<g clip-path="url(#clip0_106_309)">
<path d="M517 0.20874H160.952V235.992H517V0.20874Z" fill="#E6E6E6"/>
<path d="M506.819 29.7819H171.133V222.043H506.819V29.7819Z" fill="white"/>
<path d="M516.848 0H160.8V15.6406H516.848V0Z" fill="#FF4949"/>
<path d="M172.04 10.8952C173.589 10.8952 174.844 9.59728 174.844 7.99628C174.844 6.39528 173.589 5.09741 172.04 5.09741C170.492 5.09741 169.237 6.39528 169.237 7.99628C169.237 9.59728 170.492 10.8952 172.04 10.8952Z" fill="white"/>
<path d="M182.682 10.8952C184.23 10.8952 185.485 9.59728 185.485 7.99628C185.485 6.39528 184.23 5.09741 182.682 5.09741C181.134 5.09741 179.878 6.39528 179.878 7.99628C179.878 9.59728 181.134 10.8952 182.682 10.8952Z" fill="white"/>
<path d="M193.323 10.8952C194.872 10.8952 196.127 9.59728 196.127 7.99628C196.127 6.39528 194.872 5.09741 193.323 5.09741C191.775 5.09741 190.52 6.39528 190.52 7.99628C190.52 9.59728 191.775 10.8952 193.323 10.8952Z" fill="white"/>
<path d="M411.835 47.7897H302.546C302.313 47.7579 302.099 47.6395 301.944 47.4566C301.789 47.2736 301.703 47.0386 301.703 46.7953C301.703 46.552 301.789 46.317 301.944 46.134C302.099 45.9511 302.313 45.8327 302.546 45.8009H411.835C412.068 45.8327 412.282 45.9511 412.438 46.134C412.593 46.317 412.678 46.552 412.678 46.7953C412.678 47.0386 412.593 47.2736 412.438 47.4566C412.282 47.6395 412.068 47.7579 411.835 47.7897Z" fill="#CCCCCC"/>
<path d="M336.109 58.7281H266.623C266.39 58.6963 266.176 58.5779 266.02 58.3949C265.865 58.212 265.78 57.977 265.78 57.7337C265.78 57.4904 265.865 57.2553 266.02 57.0724C266.176 56.8895 266.39 56.7711 266.623 56.7393H336.109C336.342 56.7711 336.556 56.8895 336.711 57.0724C336.867 57.2553 336.952 57.4904 336.952 57.7337C336.952 57.977 336.867 58.212 336.711 58.3949C336.556 58.5779 336.342 58.6963 336.109 58.7281Z" fill="#CCCCCC"/>
<path d="M411.835 58.927H342.349C342.116 58.8952 341.901 58.7768 341.746 58.5939C341.591 58.411 341.506 58.176 341.506 57.9326C341.506 57.6893 341.591 57.4543 341.746 57.2714C341.901 57.0884 342.116 56.97 342.349 56.9382H411.835C412.068 56.97 412.282 57.0884 412.437 57.2714C412.593 57.4543 412.678 57.6893 412.678 57.9326C412.678 58.176 412.593 58.411 412.437 58.5939C412.282 58.7768 412.068 58.8952 411.835 58.927H411.835Z" fill="#CCCCCC"/>
<path d="M336.277 69.6667H266.792C266.558 69.6349 266.344 69.5165 266.189 69.3335C266.034 69.1506 265.948 68.9156 265.948 68.6723C265.948 68.4289 266.034 68.1939 266.189 68.011C266.344 67.828 266.558 67.7097 266.792 67.6779H336.277C336.511 67.7097 336.725 67.828 336.88 68.011C337.035 68.1939 337.121 68.4289 337.121 68.6723C337.121 68.9156 337.035 69.1506 336.88 69.3335C336.725 69.5165 336.511 69.6349 336.277 69.6667Z" fill="#CCCCCC"/>
<path d="M336.446 80.605H266.96C266.727 80.5732 266.513 80.4548 266.358 80.2719C266.202 80.089 266.117 79.8539 266.117 79.6106C266.117 79.3673 266.202 79.1323 266.358 78.9494C266.513 78.7664 266.727 78.648 266.96 78.6162H336.446C336.679 78.648 336.894 78.7664 337.049 78.9494C337.204 79.1323 337.289 79.3673 337.289 79.6106C337.289 79.8539 337.204 80.089 337.049 80.2719C336.894 80.4548 336.679 80.5732 336.446 80.605Z" fill="#CCCCCC"/>
<path d="M367.985 69.6667H348.083C347.85 69.6349 347.636 69.5165 347.481 69.3335C347.325 69.1506 347.24 68.9156 347.24 68.6723C347.24 68.4289 347.325 68.1939 347.481 68.011C347.636 67.828 347.85 67.7097 348.083 67.6779H367.985C368.218 67.7097 368.432 67.828 368.587 68.011C368.742 68.1939 368.828 68.4289 368.828 68.6723C368.828 68.9156 368.742 69.1506 368.587 69.3335C368.432 69.5165 368.218 69.6349 367.985 69.6667Z" fill="#CCCCCC"/>
<path d="M367.985 80.4062H348.083C347.85 80.3744 347.636 80.256 347.481 80.073C347.325 79.8901 347.24 79.6551 347.24 79.4118C347.24 79.1685 347.325 78.9334 347.481 78.7505C347.636 78.5676 347.85 78.4492 348.083 78.4174H367.985C368.218 78.4492 368.432 78.5676 368.587 78.7505C368.742 78.9334 368.828 79.1685 368.828 79.4118C368.828 79.6551 368.742 79.8901 368.587 80.073C368.432 80.256 368.218 80.3744 367.985 80.4062Z" fill="#CCCCCC"/>
<path d="M401.378 80.4062H381.477C381.244 80.3744 381.03 80.256 380.874 80.073C380.719 79.8901 380.634 79.6551 380.634 79.4118C380.634 79.1685 380.719 78.9334 380.874 78.7505C381.03 78.5676 381.244 78.4492 381.477 78.4174H401.378C401.612 78.4492 401.826 78.5676 401.981 78.7505C402.136 78.9334 402.222 79.1685 402.222 79.4118C402.222 79.6551 402.136 79.8901 401.981 80.073C401.826 80.256 401.612 80.3744 401.378 80.4062Z" fill="#CCCCCC"/>
<path d="M286.018 47.7897H266.117C265.884 47.7579 265.67 47.6395 265.514 47.4566C265.359 47.2736 265.274 47.0386 265.274 46.7953C265.274 46.552 265.359 46.317 265.514 46.134C265.67 45.9511 265.884 45.8327 266.117 45.8009H286.018C286.252 45.8327 286.466 45.9511 286.621 46.134C286.776 46.317 286.862 46.552 286.862 46.7953C286.862 47.0386 286.776 47.2736 286.621 47.4566C286.466 47.6395 286.252 47.7579 286.018 47.7897Z" fill="#CCCCCC"/>
<path d="M335.856 173.209H266.37C266.137 173.177 265.922 173.059 265.767 172.876C265.612 172.693 265.527 172.458 265.527 172.214C265.527 171.971 265.612 171.736 265.767 171.553C265.922 171.37 266.137 171.252 266.37 171.22H335.856C336.089 171.252 336.303 171.37 336.458 171.553C336.613 171.736 336.699 171.971 336.699 172.214C336.699 172.458 336.613 172.693 336.458 172.876C336.303 173.059 336.089 173.177 335.856 173.209H335.856Z" fill="#CCCCCC"/>
<path d="M335.518 195.086H266.032C265.799 195.054 265.585 194.936 265.43 194.753C265.275 194.57 265.189 194.335 265.189 194.092C265.189 193.848 265.275 193.613 265.43 193.43C265.585 193.247 265.799 193.129 266.032 193.097H335.518C335.752 193.129 335.966 193.247 336.121 193.43C336.276 193.613 336.362 193.848 336.362 194.092C336.362 194.335 336.276 194.57 336.121 194.753C335.966 194.936 335.752 195.054 335.518 195.086H335.518Z" fill="#CCCCCC"/>
<path d="M335.687 206.024H266.201C265.968 205.993 265.754 205.874 265.599 205.691C265.443 205.508 265.358 205.273 265.358 205.03C265.358 204.787 265.443 204.552 265.599 204.369C265.754 204.186 265.968 204.067 266.201 204.036H335.687C335.92 204.067 336.135 204.186 336.29 204.369C336.445 204.552 336.53 204.787 336.53 205.03C336.53 205.273 336.445 205.508 336.29 205.691C336.135 205.874 335.92 205.993 335.687 206.024H335.687Z" fill="#CCCCCC"/>
<path d="M365.37 195.285H345.469C345.236 195.253 345.022 195.135 344.866 194.952C344.711 194.769 344.626 194.534 344.626 194.29C344.626 194.047 344.711 193.812 344.866 193.629C345.022 193.446 345.236 193.328 345.469 193.296H365.37C365.604 193.328 365.818 193.446 365.973 193.629C366.128 193.812 366.214 194.047 366.214 194.29C366.214 194.534 366.128 194.769 365.973 194.952C365.818 195.135 365.604 195.253 365.37 195.285Z" fill="#CCCCCC"/>
<path d="M365.37 206.024H345.469C345.236 205.993 345.022 205.874 344.866 205.691C344.711 205.508 344.626 205.273 344.626 205.03C344.626 204.787 344.711 204.552 344.866 204.369C345.022 204.186 345.236 204.067 345.469 204.036H365.37C365.604 204.067 365.818 204.186 365.973 204.369C366.128 204.552 366.214 204.787 366.214 205.03C366.214 205.273 366.128 205.508 365.973 205.691C365.818 205.874 365.604 205.993 365.37 206.024Z" fill="#CCCCCC"/>
<path d="M398.764 195.285H378.863C378.629 195.253 378.415 195.135 378.26 194.952C378.105 194.769 378.02 194.534 378.02 194.29C378.02 194.047 378.105 193.812 378.26 193.629C378.415 193.446 378.629 193.328 378.863 193.296H398.764C398.997 193.328 399.212 193.446 399.367 193.629C399.522 193.812 399.607 194.047 399.607 194.29C399.607 194.534 399.522 194.769 399.367 194.952C399.212 195.135 398.997 195.253 398.764 195.285Z" fill="#CCCCCC"/>
<path d="M411.919 184.147H302.631C302.397 184.116 302.183 183.997 302.028 183.814C301.873 183.631 301.787 183.396 301.787 183.153C301.787 182.91 301.873 182.675 302.028 182.492C302.183 182.309 302.397 182.19 302.631 182.159H411.919C412.152 182.19 412.367 182.309 412.522 182.492C412.677 182.675 412.762 182.91 412.762 183.153C412.762 183.396 412.677 183.631 412.522 183.814C412.367 183.997 412.152 184.116 411.919 184.147Z" fill="#CCCCCC"/>
<path d="M286.102 184.147H266.201C265.968 184.116 265.754 183.997 265.599 183.814C265.443 183.631 265.358 183.396 265.358 183.153C265.358 182.91 265.443 182.675 265.599 182.492C265.754 182.309 265.968 182.19 266.201 182.159H286.102C286.336 182.19 286.55 182.309 286.705 182.492C286.86 182.675 286.946 182.91 286.946 183.153C286.946 183.396 286.86 183.631 286.705 183.814C286.55 183.997 286.336 184.116 286.102 184.147Z" fill="#CCCCCC"/>
<path d="M319.075 98.2742L292.09 125.828L319.075 153.382L325.146 147.104L304.739 126.002L325.315 104.727L319.075 98.2742Z" fill="#E6E6E6"/>
<path d="M358.877 98.2742L385.862 125.828L358.877 153.382L352.806 147.104L373.213 126.002L352.637 104.727L358.877 98.2742Z" fill="#E6E6E6"/>
<path d="M319.075 98.2742L292.09 125.828L319.075 153.382L325.146 147.104L304.739 126.002L325.315 104.727L319.075 98.2742Z" fill="#FF4949"/>
<path d="M358.877 98.2742L385.862 125.828L358.877 153.382L352.806 147.104L373.213 126.002L352.637 104.727L358.877 98.2742Z" fill="#FF4949"/>
<path d="M274.028 328.764C282.424 340.391 299.853 341.615 299.853 341.615C299.853 341.615 303.669 323.987 295.273 312.36C286.877 300.733 269.447 299.509 269.447 299.509C269.447 299.509 265.631 317.137 274.028 328.764Z" fill="#E6E6E6"/>
<path d="M316.801 333.135C311.26 340.807 299.759 341.614 299.759 341.614C299.759 341.614 297.241 329.983 302.782 322.31C308.322 314.638 319.823 313.831 319.823 313.831C319.823 313.831 322.341 325.462 316.801 333.135Z" fill="#E6E6E6"/>
<path d="M87.2417 277.561V307.741H78.9021L73.343 276.124L87.2417 277.561Z" fill="#FFB9B9"/>
<path d="M21.2217 277.561V307.741H12.8827L7.323 276.124L21.2217 277.561Z" fill="#FFB9B9"/>
<path d="M65.2153 55.0808C65.2153 55.0808 51.8145 45.1214 50.1394 49.8846C48.4643 54.6478 60.19 63.3082 60.19 63.3082L65.2153 55.0808Z" fill="#FFB9B9"/>
<path d="M17.6841 67.8547C17.6841 85.0735 24.8537 85.6085 36.5336 85.6085C48.2134 85.6085 59.9805 85.0735 59.9805 67.8547C59.9805 50.636 50.5121 36.6775 38.8323 36.6775C27.1524 36.6775 17.6841 50.636 17.6841 67.8547Z" fill="#2F2E41"/>
<path d="M46.3702 67.6383C46.3702 67.6383 44.6951 80.6288 52.6519 81.4948C60.6086 82.3608 26.6877 84.9589 26.6877 84.9589C26.6877 84.9589 35.482 76.7316 30.8755 70.2363C26.269 63.7411 46.3702 67.6383 46.3702 67.6383Z" fill="#FFB9B9"/>
<path d="M88.6667 299.736L91.5981 325.284C91.5981 325.284 106.255 343.903 97.0422 342.604C87.8292 341.305 81.9663 342.881 81.9663 341.148C81.9663 339.416 81.7497 333.228 80.4933 333.228C79.237 333.228 78.1973 343 78.1973 343C78.1973 343 74.4283 342.705 74.0096 342.272C73.5908 341.839 73.172 317.056 73.172 317.056C73.172 317.056 71.9157 309.695 74.4283 306.231C76.941 302.767 76.5222 299.736 76.5222 299.736L88.6667 299.736Z" fill="#2F2E41"/>
<path d="M21.9519 299.455L24.8833 325.003C24.8833 325.003 39.5405 343.623 30.3274 342.323C21.1143 341.024 15.2514 342.6 15.2514 340.868C15.2514 339.135 15.0348 332.947 13.7785 332.947C12.5222 332.947 11.4825 342.719 11.4825 342.719C11.4825 342.719 7.71347 342.424 7.2947 341.991C6.87592 341.558 6.45715 316.775 6.45715 316.775C6.45715 316.775 5.20082 309.414 7.71348 305.95C10.2261 302.486 9.80735 299.455 9.80735 299.455H21.9519Z" fill="#2F2E41"/>
<path d="M66.8903 147.747C66.8903 147.747 80.2911 187.151 81.1287 195.812C81.9663 204.472 80.2911 233.917 80.2911 233.917C80.2911 233.917 92.4357 284.793 89.923 285.226C87.4103 285.659 73.4176 287.712 72.9989 285.547C72.5801 283.382 71.0871 280.03 71.5059 278.731C71.9246 277.432 70.2495 272.669 70.2495 270.07C70.2495 267.472 64.3776 253.836 64.7964 251.671C65.2152 249.506 57.6772 217.462 56.4209 214.864C55.1645 212.266 51.8143 194.079 51.8143 194.079C51.8143 194.079 32.9694 247.341 32.5506 248.64C32.1318 249.939 30.4567 252.104 31.2943 252.537C32.1318 252.97 30.038 256.001 30.038 256.001C30.038 256.001 25.6986 273.968 25.6986 274.834C25.6986 275.7 26.5361 285.502 24.861 285.935C23.1859 286.368 6.07548 286.341 5.23793 283.31C4.40037 280.278 14.1245 245.176 14.1245 245.176C14.1245 245.176 21.2437 223.092 19.1498 217.462C17.0559 211.833 21.2437 178.058 22.9188 175.46C24.5939 172.862 25.0127 157.273 25.0127 157.273L66.8903 147.747Z" fill="#2F2E41"/>
<path d="M39.0417 74.7831C46.4428 74.7831 52.4425 68.5793 52.4425 60.9265C52.4425 53.2737 46.4428 47.0699 39.0417 47.0699C31.6406 47.0699 25.6409 53.2737 25.6409 60.9265C25.6409 68.5793 31.6406 74.7831 39.0417 74.7831Z" fill="#FFB9B9"/>
<path d="M46.3703 78.4637C46.3703 78.4637 31.2943 78.8968 30.4568 77.5977C29.6192 76.2987 8.68042 80.6288 8.68042 89.2892C8.68042 97.9495 20.8249 131.725 20.8249 131.725C20.8249 131.725 25.4315 155.974 24.1751 158.572C22.9188 161.17 70.6593 152.943 69.403 148.613C68.1467 144.282 61.0275 134.756 70.2405 126.529C79.4536 118.301 83.2226 109.641 83.2226 109.641L72.3344 79.7628C72.3344 79.7628 61.4462 78.0307 58.9336 79.7628C56.4209 81.4949 46.3703 78.4637 46.3703 78.4637Z" fill="#FF4949"/>
<path d="M80.2911 111.806L83.2226 109.641C83.2226 109.641 110.443 80.1957 103.324 74.5665C96.2046 68.9373 85.7352 63.7411 80.7099 63.3081C75.6846 62.875 71.4968 58.9779 71.4968 58.9779C71.4968 58.9779 66.0527 49.0185 61.865 55.5137C57.6772 62.009 53.0707 64.1741 58.9335 66.3392C64.7964 68.5043 68.5654 67.6382 71.4968 69.8033C74.4283 71.9684 85.7352 75.4326 80.7099 76.7316C77.8282 77.4539 75.0227 78.4692 72.3344 79.7627L66.8903 89.7221L80.2911 111.806Z" fill="#FF4949"/>
<path d="M32.9693 184.986C32.9693 184.986 43.8575 201.441 35.9008 200.575C27.944 199.709 24.175 188.45 24.175 188.45L32.9693 184.986Z" fill="#FFB9B9"/>
<path d="M11.6119 87.124L8.68048 89.2891C8.68048 89.2891 -0.951373 143.849 8.68048 158.139C18.3123 172.428 19.1499 171.562 19.1499 171.562C19.1499 171.562 20.825 170.263 21.6625 178.924C22.5001 187.584 21.2438 191.048 23.7564 191.048C26.2691 191.048 37.5761 188.45 36.7385 186.285C35.901 184.12 30.4569 171.562 30.0381 168.531C29.6193 165.5 27.5254 158.572 26.6879 154.675C25.8503 150.778 30.4569 148.613 28.363 140.385C26.2691 132.158 23.3377 117.435 23.3377 114.404C23.3377 111.373 11.6119 87.124 11.6119 87.124Z" fill="#FF4949"/>
<path d="M26.0596 48.5854C26.0596 53.2489 32.2468 57.0293 39.8792 57.0293C47.5115 57.0293 54.5364 59.5276 54.5364 54.8642C54.5364 50.2008 47.5115 40.1416 39.8792 40.1416C32.2468 40.1416 26.0596 43.922 26.0596 48.5854Z" fill="#2F2E41"/>
<path d="M59.8549 70.7772C59.8549 70.7772 60.4189 86.4746 45.3331 85.6086C30.2473 84.7425 47.3718 72.1907 47.3718 72.1907L59.8549 70.7772Z" fill="#2F2E41"/>
<path d="M409.295 341.615H0V342.964H409.295V341.615Z" fill="#3F3D56"/>
</g>
<defs>
<clipPath id="clip0_106_309">
<rect width="517" height="343" fill="white"/>
</clipPath>
</defs>
</svg>
