<svg width="122" height="17" viewBox="0 0 122 17" fill="none" xmlns="http://www.w3.org/2000/svg">
<path d="M8.50098 12.2773L0.0107422 8.33105V7.24121L8.50977 3.00488V4.81543L2.31348 7.74219L8.50098 10.4756V12.2773ZM10.9004 14V1.12402H13.2822V6.38867H19.1006V1.12402H21.4824V14H19.1006V8.26953H13.2822V14H10.9004ZM22.8447 14L27.582 1.11523H30.1748L34.8418 14H32.3984L31.124 10.3613H26.6152L25.332 14H22.8447ZM27.2129 8.58594H30.5176C29.4629 5.20508 28.9209 3.45898 28.8916 3.34766L27.2129 8.58594ZM41.7236 14.1846C39.8428 14.1846 38.3516 13.5928 37.25 12.4092C36.1484 11.2256 35.5977 9.59082 35.5977 7.50488C35.5977 5.52441 36.1719 3.93652 37.3203 2.74121C38.4746 1.54004 39.9834 0.939453 41.8467 0.939453C43.3525 0.939453 44.627 1.28809 45.6699 1.98535L44.9229 3.78711C43.9209 3.17188 42.9131 2.86426 41.8994 2.86426C40.7158 2.86426 39.7783 3.29199 39.0869 4.14746C38.4014 4.99707 38.0586 6.13965 38.0586 7.5752C38.0586 9.06348 38.3896 10.2148 39.0518 11.0293C39.7197 11.8438 40.6689 12.251 41.8994 12.251C42.9775 12.251 44.0469 11.9814 45.1074 11.4424L45.4238 13.3057C44.4395 13.8916 43.2061 14.1846 41.7236 14.1846ZM47.542 14V1.12402H49.9326V6.9248C50.3486 6.37402 51.1982 5.3457 52.4814 3.83984C53.7705 2.33398 54.5381 1.42871 54.7842 1.12402H57.6055L52.7363 6.91602L57.9131 14H55.1182L50.917 8.22559L49.9326 9.05176V14H47.542ZM58.6426 16.7949V15.2656H67.5547V16.7949H58.6426ZM103.678 15.6611L109.145 0.913086H111.061L105.55 15.6611H103.678ZM112.616 12.2686V10.458L118.804 7.74219L112.616 4.79785V2.9873L121.115 7.24121V8.33105L112.616 12.2686Z" fill="white"/>
<path d="M71.9492 12.0928H73.6543C75.125 12.0928 76.2441 11.709 77.0117 10.9414C77.7793 10.168 78.1631 9.04297 78.1631 7.56641C78.1631 5.98438 77.7676 4.83594 76.9766 4.12109C76.1855 3.40039 74.9932 3.04004 73.3994 3.04004H71.9492V12.0928ZM69.5674 14V1.12402H73.2939C74.4189 1.12402 75.4268 1.25293 76.3174 1.51074C77.208 1.76855 77.9727 2.1582 78.6113 2.67969C79.2559 3.19531 79.748 3.86328 80.0879 4.68359C80.4336 5.49805 80.6064 6.44141 80.6064 7.51367C80.6064 9.59375 79.9795 11.1963 78.7256 12.3213C77.4717 13.4404 75.7344 14 73.5137 14H69.5674ZM82.8652 14V1.12402H90.6699L90.5732 3.01367H85.2471V6.33594H90.3096V8.22559H85.2471V12.1016H90.7666L90.6875 14H82.8652ZM96.2334 14L91.5488 1.12402H94.001L96.7256 9.07812C96.8311 9.35352 97.0742 10.1592 97.4551 11.4951C97.4785 11.4014 97.5869 11.0176 97.7803 10.3438C97.9736 9.66406 98.0996 9.24805 98.1582 9.0957C98.2285 8.89648 98.6738 7.5752 99.4941 5.13184C100.314 2.68262 100.763 1.34668 100.839 1.12402H103.265L98.6416 14H96.2334Z" fill="#FF4949"/>
</svg>
