<svg width="272" height="252" viewBox="0 0 272 252" fill="none" xmlns="http://www.w3.org/2000/svg">
<path fill-rule="evenodd" clip-rule="evenodd" d="M180.042 0H90.9579H88.0842H-1V84V168V252H90.9579V168H180.042V84H272V0H180.042Z" fill="#10177A"/>
<path fill-rule="evenodd" clip-rule="evenodd" d="M180.042 0H90.9579H88.0842H-1V84V168V252H90.9579V168H180.042V84H272V0H180.042Z" fill="#10177A"/>
<path fill-rule="evenodd" clip-rule="evenodd" d="M180.042 0H90.9579H88.0842H-1V84V168V252H90.9579V168H180.042V84H272V0H180.042Z" fill="#10177A"/>
<path fill-rule="evenodd" clip-rule="evenodd" d="M180.042 0H90.9579H88.0842H-1V84V168V252H90.9579V168H180.042V84H272V0H180.042Z" fill="#10177A"/>
<path fill-rule="evenodd" clip-rule="evenodd" d="M180.042 0H90.9579H88.0842H-1V84V168V252H90.9579V168H180.042V84H272V0H180.042Z" fill="#10177A"/>
</svg>
