<svg width="253" height="261" viewBox="0 0 253 261" fill="none" xmlns="http://www.w3.org/2000/svg">
<path fill-rule="evenodd" clip-rule="evenodd" d="M251.941 88L251.88 0L167.88 0.0581665L167.941 88.0582L83.9411 88.1163L84 173.116L0 173.174L0.0609131 261.174L84.0609 261.116L168.061 261.058L252.061 261L252.002 176L252 173L251.941 88Z" fill="#10177A"/>
<path fill-rule="evenodd" clip-rule="evenodd" d="M251.941 88L251.88 0L167.88 0.0581665L167.941 88.0582L83.9411 88.1163L84 173.116L0 173.174L0.0609131 261.174L84.0609 261.116L168.061 261.058L252.061 261L252.002 176L252 173L251.941 88Z" fill="#10177A"/>
<path fill-rule="evenodd" clip-rule="evenodd" d="M251.941 88L251.88 0L167.88 0.0581665L167.941 88.0582L83.9411 88.1163L84 173.116L0 173.174L0.0609131 261.174L84.0609 261.116L168.061 261.058L252.061 261L252.002 176L252 173L251.941 88Z" fill="#10177A"/>
<path fill-rule="evenodd" clip-rule="evenodd" d="M251.941 88L251.88 0L167.88 0.0581665L167.941 88.0582L83.9411 88.1163L84 173.116L0 173.174L0.0609131 261.174L84.0609 261.116L168.061 261.058L252.061 261L252.002 176L252 173L251.941 88Z" fill="#10177A"/>
<path fill-rule="evenodd" clip-rule="evenodd" d="M251.941 88L251.88 0L167.88 0.0581665L167.941 88.0582L83.9411 88.1163L84 173.116L0 173.174L0.0609131 261.174L84.0609 261.116L168.061 261.058L252.061 261L252.002 176L252 173L251.941 88Z" fill="#10177A"/>
</svg>
