<svg width="498" height="345" viewBox="0 0 498 345" fill="none" xmlns="http://www.w3.org/2000/svg">
<g clip-path="url(#clip0_106_144)">
<path d="M99.2232 345C154.023 345 198.446 341.64 198.446 337.496C198.446 333.352 154.023 329.993 99.2232 329.993C44.4237 329.993 0 333.352 0 337.496C0 341.64 44.4237 345 99.2232 345Z" fill="#E6E6E6"/>
<path d="M75.8444 76.5495C93.1122 69.2363 114.62 73.8699 135.624 77.0857C135.819 73.1913 138.188 68.4516 135.707 65.7347C132.692 62.4338 132.969 58.9655 134.784 55.4773C139.423 46.5574 132.776 37.066 126.064 29.1741C124.552 27.3993 122.64 26.0048 120.484 25.1039C118.328 24.203 115.99 23.8211 113.658 23.9892L101.225 24.8734C98.1999 25.0886 95.3126 26.2186 92.9499 28.1123C90.5871 30.006 88.8616 32.5731 88.0041 35.4699C85.0354 39.4901 83.4465 43.4992 84.4469 47.4874C80.0003 50.5131 79.2532 54.1655 81.2513 58.2829C82.9457 60.8753 82.9276 63.3989 81.1742 65.8526C78.8715 68.9808 77.1079 72.4689 75.9555 76.1739L75.8444 76.5495Z" fill="#2F2E41"/>
<path d="M486.199 298.247H134.26C131.13 298.247 128.128 297.009 125.915 294.805C123.702 292.602 122.459 289.613 122.459 286.497C250.037 271.733 375.217 271.733 498 286.497C498 289.613 496.757 292.602 494.544 294.805C492.331 297.009 489.329 298.247 486.199 298.247Z" fill="#2F2E41"/>
<path d="M498 287.188L122.459 286.497L165.983 213.577L166.191 213.231V52.5233C166.191 50.5726 166.577 48.641 167.326 46.8389C168.076 45.0367 169.175 43.3991 170.56 42.0198C171.945 40.6405 173.59 39.5464 175.4 38.8C177.21 38.0536 179.15 37.6695 181.109 37.6697H437.268C439.227 37.6695 441.167 38.0536 442.977 38.8C444.787 39.5464 446.431 40.6405 447.816 42.0198C449.202 43.3991 450.301 45.0367 451.05 46.8389C451.8 48.641 452.186 50.5726 452.185 52.5233V214.337L498 287.188Z" fill="#3F3D56"/>
<path d="M180.768 48.0375C179.48 48.0389 178.245 48.5491 177.334 49.4562C176.423 50.3632 175.911 51.593 175.909 52.8758V199.407C175.911 200.69 176.423 201.92 177.334 202.827C178.245 203.734 179.48 204.244 180.768 204.246H439.69C440.979 204.244 442.214 203.734 443.125 202.827C444.036 201.92 444.548 200.69 444.55 199.407V52.8758C444.548 51.593 444.036 50.3633 443.125 49.4562C442.214 48.5492 440.979 48.039 439.69 48.0375H180.768Z" fill="white"/>
<path d="M181.853 223.599C181.455 223.6 181.066 223.714 180.731 223.927C180.395 224.141 180.129 224.446 179.961 224.806L166.55 253.836C166.404 254.152 166.341 254.499 166.365 254.846C166.389 255.193 166.5 255.528 166.689 255.821C166.877 256.114 167.136 256.355 167.443 256.521C167.749 256.688 168.093 256.776 168.442 256.776H450.47C450.825 256.776 451.174 256.686 451.484 256.513C451.794 256.341 452.054 256.093 452.241 255.792C452.428 255.492 452.534 255.148 452.55 254.795C452.566 254.442 452.491 254.091 452.332 253.775L437.754 224.745C437.582 224.4 437.317 224.11 436.988 223.907C436.659 223.705 436.279 223.598 435.892 223.599H181.853Z" fill="#2F2E41"/>
<path d="M309.188 45.6183C310.913 45.6183 312.312 44.2257 312.312 42.5079C312.312 40.7901 310.913 39.3976 309.188 39.3976C307.463 39.3976 306.065 40.7901 306.065 42.5079C306.065 44.2257 307.463 45.6183 309.188 45.6183Z" fill="white"/>
<path d="M281.467 262.305C281.009 262.306 280.565 262.456 280.201 262.734C279.838 263.011 279.576 263.399 279.457 263.839L276.093 276.281C276.009 276.588 275.998 276.91 276.06 277.223C276.122 277.535 276.256 277.829 276.45 278.081C276.645 278.334 276.895 278.539 277.182 278.68C277.468 278.82 277.784 278.894 278.103 278.894H342.08C342.412 278.894 342.739 278.815 343.034 278.663C343.329 278.512 343.583 278.292 343.776 278.023C343.968 277.753 344.093 277.442 344.14 277.115C344.188 276.788 344.156 276.454 344.047 276.142L339.722 263.7C339.58 263.293 339.314 262.94 338.962 262.69C338.609 262.44 338.187 262.305 337.754 262.305H281.467Z" fill="#2F2E41"/>
<path d="M452.185 210.812V213.576H165.983L166.198 213.231V210.812H452.185Z" fill="#2F2E41"/>
<path d="M444.203 96.7661C471.039 96.7661 492.794 75.1043 492.794 48.3831C492.794 21.6618 471.039 0 444.203 0C417.366 0 395.611 21.6618 395.611 48.3831C395.611 75.1043 417.366 96.7661 444.203 96.7661Z" fill="#FF4949"/>
<path d="M464.333 69.4642H424.072C423.336 69.4635 422.63 69.1719 422.109 68.6536C421.589 68.1353 421.296 67.4325 421.295 66.6994V42.5079C421.296 41.7749 421.589 41.0721 422.109 40.5538C422.63 40.0355 423.336 39.7439 424.072 39.7432H464.333C465.069 39.7439 465.775 40.0355 466.296 40.5538C466.816 41.0721 467.109 41.7749 467.11 42.5079V66.6994C467.109 67.4325 466.816 68.1353 466.296 68.6536C465.775 69.1719 465.069 69.4635 464.333 69.4642ZM424.072 42.5079V66.6994H464.335L464.333 42.5079L424.072 42.5079Z" fill="white"/>
<path d="M456.697 42.508H431.708V31.449C431.708 23.4389 436.963 17.6252 444.203 17.6252C451.442 17.6252 456.697 23.4389 456.697 31.449L456.697 42.508ZM434.484 39.7432H453.921V31.449C453.921 24.9377 449.925 20.39 444.203 20.39C438.481 20.39 434.484 24.9377 434.484 31.449L434.484 39.7432Z" fill="white"/>
<path d="M444.203 56.6773C445.736 56.6773 446.979 55.4395 446.979 53.9126C446.979 52.3856 445.736 51.1478 444.203 51.1478C442.669 51.1478 441.426 52.3856 441.426 53.9126C441.426 55.4395 442.669 56.6773 444.203 56.6773Z" fill="white"/>
<path d="M410.282 154.544H210.177C209.195 154.542 208.253 154.153 207.558 153.462C206.864 152.77 206.473 151.832 206.472 150.854V101.429C206.473 100.451 206.864 99.5131 207.558 98.8214C208.253 98.1296 209.195 97.7405 210.177 97.7394H410.282C411.264 97.7405 412.206 98.1296 412.901 98.8214C413.595 99.5131 413.986 100.451 413.987 101.429V150.854C413.986 151.832 413.595 152.77 412.901 153.462C412.206 154.153 411.264 154.542 410.282 154.544ZM210.177 99.2153C209.588 99.2159 209.023 99.4494 208.606 99.8644C208.189 100.279 207.955 100.842 207.954 101.429V150.854C207.955 151.441 208.189 152.003 208.606 152.418C209.023 152.834 209.588 153.067 210.177 153.068H410.282C410.871 153.067 411.436 152.834 411.853 152.418C412.27 152.003 412.504 151.441 412.505 150.854V101.429C412.504 100.842 412.27 100.279 411.853 99.8644C411.436 99.4494 410.871 99.2159 410.282 99.2153L210.177 99.2153Z" fill="#E6E6E6"/>
<path d="M241.27 139.275C249.606 139.275 256.364 132.546 256.364 124.245C256.364 115.944 249.606 109.215 241.27 109.215C232.933 109.215 226.175 115.944 226.175 124.245C226.175 132.546 232.933 139.275 241.27 139.275Z" fill="#E6E6E6"/>
<path d="M276.131 114.225C275.801 114.225 275.473 114.289 275.167 114.415C274.862 114.54 274.584 114.725 274.35 114.957C274.116 115.19 273.93 115.466 273.803 115.771C273.677 116.075 273.612 116.401 273.612 116.73C273.612 117.059 273.677 117.385 273.803 117.69C273.93 117.994 274.116 118.27 274.35 118.503C274.584 118.735 274.862 118.92 275.167 119.046C275.473 119.171 275.801 119.236 276.131 119.235H394.733C395.4 119.235 396.04 118.971 396.512 118.501C396.984 118.032 397.249 117.394 397.249 116.73C397.249 116.066 396.984 115.429 396.512 114.959C396.04 114.489 395.4 114.225 394.733 114.225H276.131Z" fill="#E6E6E6"/>
<path d="M276.131 129.255C275.464 129.255 274.824 129.519 274.352 129.989C273.881 130.459 273.615 131.096 273.615 131.76C273.615 132.425 273.881 133.062 274.352 133.531C274.824 134.001 275.464 134.265 276.131 134.265H327.166C327.833 134.265 328.473 134.001 328.945 133.531C329.417 133.062 329.682 132.425 329.682 131.76C329.682 131.096 329.417 130.459 328.945 129.989C328.473 129.519 327.833 129.255 327.166 129.255H276.131Z" fill="#E6E6E6"/>
<path d="M165.491 130.269L128.5 149.85L128.031 133.532C140.105 131.525 151.592 128.031 162.213 122.343L166.082 112.825C166.503 111.788 167.188 110.878 168.07 110.185C168.951 109.491 169.999 109.037 171.11 108.868C172.22 108.699 173.356 108.821 174.405 109.221C175.454 109.621 176.381 110.286 177.094 111.151C178.138 112.416 178.659 114.028 178.553 115.662C178.448 117.295 177.722 118.828 176.524 119.948L165.491 130.269Z" fill="#FFB8B8"/>
<path d="M75.1071 243.326C74.8372 242.341 74.7799 241.31 74.9389 240.301C75.098 239.292 75.4697 238.327 76.0298 237.472L84.1556 225.055C86.0775 222.118 89.0266 219.996 92.4306 219.102C95.8347 218.208 99.4509 218.604 102.578 220.215C99.1628 226.003 99.6389 231.081 103.757 235.494C97.3639 238.601 91.455 242.612 86.2135 247.402C85.2567 248.052 84.1578 248.464 83.0084 248.605C81.859 248.747 80.6924 248.612 79.6058 248.213C78.5192 247.814 77.544 247.163 76.7615 246.313C75.9789 245.463 75.4117 244.439 75.1071 243.326Z" fill="#2F2E41"/>
<path d="M167.175 227.091C165.946 229.131 164.21 230.823 162.135 232.003C160.059 233.184 157.714 233.813 155.324 233.831L101.342 234.238L99.0007 220.717L122.881 213.724L102.747 198.338L124.754 172.696L164.726 209.791C167.062 211.959 168.58 214.86 169.026 218.009C169.472 221.158 168.818 224.364 167.175 227.091Z" fill="#2F2E41"/>
<path d="M92.9135 319.559H80.2711C68.92 242.085 57.3657 164.394 91.5088 135.397L131.777 141.924L126.627 175.959L104.151 201.602L92.9135 319.559Z" fill="#2F2E41"/>
<path d="M104.027 337.109C103.037 337.378 102.002 337.435 100.988 337.276C99.9746 337.118 99.0063 336.748 98.1468 336.19L84.4197 334.353C81.4701 332.44 79.3394 329.503 78.4411 326.114C77.5428 322.725 77.941 319.124 79.5584 316.01C85.3717 319.41 90.4711 318.936 94.9026 314.835C98.0337 321.13 103.193 320.746 108.12 326.05C108.772 327.002 109.186 328.097 109.328 329.241C109.47 330.385 109.335 331.547 108.934 332.629C108.534 333.711 107.88 334.682 107.026 335.461C106.172 336.241 105.144 336.805 104.027 337.109Z" fill="#2F2E41"/>
<path d="M122.881 83.6452L99.4689 78.0505C103.357 70.1254 103.677 61.3072 101.81 51.9414L117.73 51.4752C118.229 63.1218 119.738 74.0026 122.881 83.6452Z" fill="#FFB8B8"/>
<path d="M129.315 155.962C112.272 167.526 100.23 156.358 91.0406 139.127C92.3175 128.583 90.2499 115.965 86.4206 102.255C84.7176 96.2078 85.3534 89.7446 88.2025 84.1414C91.0516 78.5382 95.907 74.2022 101.81 71.9895L121.944 80.3817C139.041 94.2574 142.406 109.288 135.991 125.14L129.315 155.962Z" fill="#FF4949"/>
<path d="M80.2711 95.301L61.5415 105.092L94.7865 124.674L99.4123 136.035C99.721 136.793 99.8714 137.606 99.8543 138.425C99.8372 139.243 99.653 140.049 99.3128 140.793C98.9726 141.538 98.4836 142.206 97.8757 142.757C97.2677 143.308 96.5536 143.729 95.7767 143.996C94.8935 144.299 93.9519 144.395 93.0255 144.275C92.0991 144.155 91.2131 143.824 90.4369 143.306C89.6606 142.789 89.0153 142.099 88.5513 141.292C88.0873 140.485 87.8173 139.581 87.7625 138.653L87.2947 130.735L45.0408 116.851C43.6171 116.383 42.3191 115.599 41.2449 114.557C40.1707 113.516 39.3486 112.245 38.8408 110.841C38.1006 108.793 38.0629 106.559 38.7337 104.489C39.4044 102.418 40.7457 100.627 42.5476 99.3959L76.5252 76.1855L80.2711 95.301Z" fill="#FFB8B8"/>
<path d="M99.0006 97.166C91.1892 93.7574 84.0861 97.4602 75.1205 100.43L73.7158 75.7193C82.6183 70.9947 91.1063 69.7209 99.0006 73.3882L99.0006 97.166Z" fill="#FF4949"/>
<path d="M108.345 63.7151C116.6 63.7151 123.292 57.0515 123.292 48.8316C123.292 40.6116 116.6 33.948 108.345 33.948C100.089 33.948 93.3972 40.6116 93.3972 48.8316C93.3972 57.0515 100.089 63.7151 108.345 63.7151Z" fill="#FFB8B8"/>
<path d="M126.227 46.9536C111.428 48.3969 100.15 45.9869 92.9432 39.1248V33.5985H124.971L126.227 46.9536Z" fill="#2F2E41"/>
</g>
<defs>
<clipPath id="clip0_106_144">
<rect width="498" height="345" fill="white"/>
</clipPath>
</defs>
</svg>
